<svg width="100" height="100" viewBox="0 0 100 100" fill="none" xmlns="http://www.w3.org/2000/svg">
  <rect width="100" height="100" rx="30" fill="#0066F1"/>
  <path d="M35.28 72C33.872 72 32.784 71.6373 32.016 70.912C31.2907 70.144 30.928 69.056 30.928 67.648V31.232C30.928 29.824 31.2907 28.7573 32.016 28.032C32.784 27.264 33.872 26.88 35.28 26.88H47.696C55.248 26.88 61.072 28.8213 65.168 32.704C69.3067 36.5867 71.376 42.1547 71.376 49.408C71.376 53.0347 70.8427 56.256 69.776 59.072C68.752 61.8453 67.216 64.192 65.168 66.112C63.1627 68.032 60.688 69.504 57.744 70.528C54.8427 71.5093 51.4933 72 47.696 72H35.28ZM39.12 65.216H47.184C49.8293 65.216 52.112 64.896 54.032 64.256C55.9947 63.5733 57.616 62.592 58.896 61.312C60.2187 59.9893 61.2 58.3467 61.84 56.384C62.48 54.3787 62.8 52.0533 62.8 49.408C62.8 44.1173 61.4987 40.1707 58.896 37.568C56.2933 34.9653 52.3893 33.664 47.184 33.664H39.12V65.216Z" fill="white"/>
</svg>
